Coordinates
version=1
nRows=6
nColumns=46
inDegrees=yes

Units are S.I. units (second, meters, Newtons, ...)
Angles are in degrees.

endheader
time	pelvis_tilt	pelvis_list	pelvis_rotation	pelvis_tx	pelvis_ty	pelvis_tz	bb_angle	bb_tx	bb_ty	bb_tz	hip_flexion_r	hip_adduction_r	hip_rotation_r	knee_angle_r	knee_angle_r_beta	ankle_angle_r	subtalar_angle_r	mtp_angle_r	crank_angle_r	hip_flexion_l	hip_adduction_l	hip_rotation_l	knee_angle_l	knee_angle_l_beta	ankle_angle_l	subtalar_angle_l	mtp_angle_l	crank_angle_l	lumbar_extension	lumbar_bending	lumbar_rotation	arm_flex_r	arm_add_r	arm_rot_r	elbow_flex_r	pro_sup_r	wrist_flex_r	wrist_dev_r	arm_flex_l	arm_add_l	arm_rot_l	elbow_flex_l	pro_sup_l	wrist_flex_l	wrist_dev_l
      2.50500000	    -29.97574486	     -8.02995365	    -12.88318037	      0.41701272	      1.22381636	     -0.25500940	      0.00000000	      0.50000000	      0.00000000	      0.25000000	     72.40728146	     11.08182710	     -2.55857644	     88.89331826	      1.55148109	     15.80580125	     -9.96778452	      0.00000000	      0.00000000	     26.55348700	    -20.80097015	    -16.05234963	     21.36133900	      0.37282570	    -31.27772565	      8.22985615	      0.00000000	      0.00000000	    -55.78075978	      2.71336270	     13.72345643	     50.71427510	    -21.03565642	     31.16237106	     75.92827041	     50.08888583	      0.00000000	      0.00000000	     45.13928393	    -15.51190928	     21.00708149	     62.02836229	     51.28591441	      0.00000000	      0.00000000
      2.51000000	    -30.20314267	     -7.73828637	    -13.11017129	      0.41645444	      1.22532716	     -0.25480844	      0.00000000	      0.50000000	      0.00000000	      0.25000000	     72.58302391	     11.48921974	     -2.02227294	     87.89346444	      1.53403035	     14.97601590	    -10.72170321	      0.00000000	      0.00000000	     26.89929775	    -20.55269690	    -15.44324918	     21.96147508	      0.38330005	    -31.32323810	      7.35840316	      0.00000000	      0.00000000	    -55.86981382	      2.38505205	     13.63959285	     50.44311789	    -20.75915404	     30.29477874	     76.74999974	     49.73253927	      0.00000000	      0.00000000	     45.29461805	    -15.45949507	     20.68708240	     62.24886640	     50.70431004	      0.00000000	      0.00000000
      2.51500000	    -30.42597672	     -7.49090892	    -13.27886915	      0.41589123	      1.22678105	     -0.25463319	      0.00000000	      0.50000000	      0.00000000	      0.25000000	     72.72122603	     11.84523602	     -1.54634890	     86.88336506	      1.51640079	     14.19007823	    -11.40260993	      0.00000000	      0.00000000	     27.26916427	    -20.32674278	    -14.73126173	     22.54257308	      0.39344212	    -31.41846657	      6.63493517	      0.00000000	      0.00000000	    -55.98917984	      2.12084802	     13.67751261	     50.06308317	    -20.59842376	     29.38423817	     77.73429787	     49.45693651	      0.00000000	      0.00000000	     45.50087080	    -15.42890840	     20.61846415	     62.47835861	     50.27350981	      0.00000000	      0.00000000
      2.52000000	    -30.61878056	     -7.23176327	    -13.39713316	      0.41530983	      1.22813024	     -0.25454897	      0.00000000	      0.50000000	      0.00000000	      0.25000000	     72.81950470	     12.11279757	     -1.07827036	     85.88594334	      1.49899249	     13.45008417	    -11.86379490	      0.00000000	      0.00000000	     27.65873176	    -20.05962912	    -13.93968394	     23.16577864	      0.40431911	    -31.49612992	      5.88873837	      0.00000000	      0.00000000	    -56.11579228	      1.80440703	     14.09728949	     49.23487646	    -20.81014438	     27.85011556	     79.25183750	     49.22808832	      0.00000000	      0.00000000	     46.18195497	    -15.11130986	     21.33353185	     62.20034748	     50.08733841	      0.00000000	      0.00000000
      2.52500000	    -30.73637206	     -6.98161770	    -13.46780217	      0.41487853	      1.22948650	     -0.25444378	      0.00000000	      0.50000000	      0.00000000	      0.25000000	     72.79336019	     12.33664016	     -0.63078386	     84.85459412	      1.48099205	     12.71319186	    -12.40840616	      0.00000000	      0.00000000	     27.96976780	    -19.77815828	    -13.20122254	     23.80797439	      0.41552754	    -31.53551292	      5.19430665	      0.00000000	      0.00000000	    -56.31225450	      1.57608067	     13.88542549	     49.04760669	    -20.29789518	     27.00837958	     79.81077385	     48.99596010	      0.00000000	      0.00000000	     46.09233257	    -15.14695476	     20.70361174	     62.79735632	     49.72374691	      0.00000000	      0.00000000
      2.53000000	    -30.81062070	     -6.75077986	    -13.49721671	      0.41449815	      1.23080119	     -0.25459956	      0.00000000	      0.50000000	      0.00000000	      0.25000000	     72.67919648	     12.49748748	     -0.18763159	     83.78762234	      1.46236988	     11.95780071	    -12.95519517	      0.00000000	      0.00000000	     28.28487068	    -19.47769301	    -12.43846340	     24.56495563	      0.42873936	    -31.42653703	      4.36988320	      0.00000000	      0.00000000	    -56.55802943	      1.46472713	     13.66493929	     48.87823640	    -19.72269733	     26.08458358	     80.37188865	     48.73029703	      0.00000000	      0.00000000	     45.96678327	    -15.20104926	     20.06830696	     63.45199216	     49.29305966	      0.00000000	      0.00000000
